<?xml version="1.0" encoding="UTF-8"?>
<svg width="24" height="24" viewBox="0 0 24 24" fill="none" xmlns="http://www.w3.org/2000/svg">
  <path fill-rule="evenodd" clip-rule="evenodd" d="M12 15C15.2101 14.9928 18.4224 16.2389 20.8716 18.7384C21.4472 19.3258 21.9549 19.9561 22.3948 20.6193C22.6181 20.9559 22.4699 21.4078 22.1015 21.5654L18.2887 23.1973C18.0072 23.3178 17.6835 23.2246 17.4851 22.9889C17.3664 22.8479 17.2415 22.7104 17.1106 22.5768C16.5792 22.0344 15.9853 21.5948 15.3526 21.2578C14.3057 20.7002 13.1524 20.4238 12 20.4283C10.8476 20.4238 9.69436 20.7002 8.64741 21.2578C8.0147 21.5948 7.4208 22.0344 6.88943 22.5768C6.75847 22.7104 6.63363 22.8479 6.5149 22.9889C6.31647 23.2246 5.99273 23.3178 5.71129 23.1973L1.89845 21.5654C1.53009 21.4078 1.38193 20.9559 1.60518 20.6193C2.04508 19.9561 2.55279 19.3258 3.12834 18.7384C5.57755 16.2389 8.7899 14.9928 12 15Z" fill="#7A3AFF"/>
  <path fill-rule="evenodd" clip-rule="evenodd" d="M5.66244 3.87073C5.66244 6.83634 3.92174 9.36895 1.46925 10.3726C1.24058 10.4662 1.07394 10.6844 1.05498 10.9433L0.751846 15.0835C0.72218 15.4886 1.05452 15.8197 1.43022 15.7373C6.60726 14.6024 10.5 9.72077 10.5 3.87073C10.5 2.95941 10.4055 2.0716 10.2265 1.2178C10.1488 0.847438 9.77173 0.654007 9.44016 0.797521L5.99304 2.28953C5.72634 2.40497 5.57747 2.70438 5.61265 3.00726C5.64551 3.29018 5.66244 3.57835 5.66244 3.87073Z" fill="#7A3AFF"/>
  <path fill-rule="evenodd" clip-rule="evenodd" d="M18.3376 3.87073C18.3376 6.83634 20.0783 9.36895 22.5307 10.3726C22.7594 10.4662 22.9261 10.6844 22.945 10.9433L23.2482 15.0835C23.2778 15.4886 22.9455 15.8197 22.5698 15.7373C17.3927 14.6024 13.5 9.72077 13.5 3.87073C13.5 2.95941 13.5945 2.0716 13.7735 1.2178C13.8512 0.847438 14.2283 0.654007 14.5598 0.797521L18.007 2.28953C18.2737 2.40497 18.4225 2.70438 18.3873 3.00726C18.3545 3.29018 18.3376 3.57835 18.3376 3.87073Z" fill="#7A3AFF"/>
</svg>
